<svg xmlns="http://www.w3.org/2000/svg" viewBox="0 0 512 512"><rect width="512" height="512" fill="#404141"/><rect y="384" width="512" height="128" fill="#9DBCD0"/><path fill="#FAFAFA" fill-rule="nonzero" transform="translate(-1878.22 76.74) scale(4.0723)" d="M510.442 60.718L501.404 60.718L501.404 11.684L527.201 11.606C531.894 11.606 535.968 13.275 539.265 16.572C542.640 19.869 544.308 23.865 544.308 28.559C544.308 32.128 543.183 35.347 541.011 38.179C538.838 40.972 536.045 42.951 532.438 43.998L546.752 60.679L535.541 60.679L516.106 37.946L523.050 37.946C530.343 37.946 535.269 34.145 535.269 28.559C535.269 26.386 534.493 24.486 532.864 22.934C531.313 21.382 529.412 20.606 527.201 20.606L510.442 20.606L510.442 60.718"/></svg>